PathFileType	4	(X/Y/Z)	C:\Users\MAHE\Documents\generic-specific-tibial-stress-mtlb\PublicDataset\P01\Gait\WBDS01static1.trc
DataRate	CameraRate	NumFrames	NumMarkers	Units	OrigDataRate	OrigDataStartFrame	OrigNumFrames
150.000000	150.000000	5	28	mm	150.000000	56	150
Frame#	Time	L.Ankle			L.Ankle.Medial			L.ASIS			L.GTR			L.Heel			L.HF			L.Iliac.Crest			L.Knee			L.Knee.Medial			L.MT1			L.MT2			L.MT5			L.PSIS			L.TT			R.Ankle			R.Ankle.Medial			R.ASIS			R.GTR			R.Heel			R.HF			R.Iliac.Crest			R.Knee			R.Knee.Medial			R.MT1			R.MT2			R.MT5			R.PSIS			R.TT			
		X1	Y1	Z1	X2	Y2	Z2	X3	Y3	Z3	X4	Y4	Z4	X5	Y5	Z5	X6	Y6	Z6	X7	Y7	Z7	X8	Y8	Z8	X9	Y9	Z9	X10	Y10	Z10	X11	Y11	Z11	X12	Y12	Z12	X13	Y13	Z13	X14	Y14	Z14	X15	Y15	Z15	X16	Y16	Z16	X17	Y17	Z17	X18	Y18	Z18	X19	Y19	Z19	X20	Y20	Z20	X21	Y21	Z21	X22	Y22	Z22	X23	Y23	Z23	X24	Y24	Z24	X25	Y25	Z25	X26	Y26	Z26	X27	Y27	Z27	X28	Y28	Z28	

57	0.3733333333333334	691.0934448242188	75.83141326904297	1042.869506835938	709.958740234375	87.01986694335938	1127.6005859375	804.3133544921875	955.3938598632813	1085.425170898438	715.0430297851563	880.0926513671875	1040.4306640625	635.8094482421875	47.536865234375	1083.511474609375	699.1864013671875	432.608642578125	1043.541870117188	717.6357421875	1033.157348632813	1047.025390625	718.7056274414063	495.1126098632813	1052.759155273438	723.2172241210938	486.4638061523438	1179.285278320313	841.3933715820313	41.09494400024414	1101.71630859375	841.87451171875	35.39268493652344	1072.961059570313	814.6881713867188	28.80649757385254	1021.617980957031	614.5931396484375	1002.847045898438	1194.287841796875	758.6337280273438	420.0451354980469	1087.147583007813	689.2061767578125	72.86371612548828	1399.40576171875	705.7530517578125	91.74741363525391	1314.325561523438	807.9692993164063	954.3192138671875	1364.04931640625	704.6302490234375	888.1607666015625	1405.20556640625	636.8041381835938	49.56883239746094	1349.532836914063	711.3309936523438	440.2114562988281	1404.167358398438	726.77197265625	1032.254150390625	1404.98486328125	728.1242065429688	495.8713684082031	1395.129638671875	729.5922241210938	481.7694702148438	1270.403198242188	842.2381591796875	43.41040802001953	1342.052612304688	842.2120971679688	38.28028106689453	1364.964721679688	809.9558715820313	31.66409492492676	1416.177978515625	616.409423828125	1000.791748046875	1264.344970703125	767.6859741210938	423.6168212890625	1347.623168945313	
58	0.38	691.0916748046875	75.82358551025391	1042.866333007813	709.9608154296875	87.02528381347656	1127.598510742188	804.306884765625	955.3925170898438	1085.40283203125	715.0426025390625	880.090576171875	1040.432861328125	635.7966918945313	47.54117965698242	1083.510864257813	699.1837768554688	432.6146240234375	1043.5361328125	717.6737670898438	1033.153442382813	1047.0341796875	718.7000732421875	495.1115417480469	1052.754150390625	723.2294921875	486.4750061035156	1179.280517578125	841.3980712890625	41.09541702270508	1101.711791992188	841.8699951171875	35.39883041381836	1072.964111328125	814.6893920898438	28.81319808959961	1021.61376953125	614.6090698242188	1002.84521484375	1194.294189453125	758.642578125	420.0413208007813	1087.140747070313	689.2260131835938	72.85838317871094	1399.410766601563	705.7498168945313	91.74757385253906	1314.327514648438	808.0148315429688	954.3216552734375	1364.016845703125	704.6655883789063	888.1566162109375	1405.211303710938	636.8089599609375	49.57232284545898	1349.526733398438	711.3849487304688	440.2179565429688	1404.172973632813	726.867431640625	1032.291870117188	1404.936645507813	728.1906127929688	495.858154296875	1395.121337890625	729.6433715820313	481.7771606445313	1270.4072265625	842.2343139648438	43.41337585449219	1342.044555664063	842.2132568359375	38.28130722045898	1364.956420898438	809.9583740234375	31.67432022094727	1416.166381835938	616.4373168945313	1000.808044433594	1264.356323242188	767.7156372070313	423.613525390625	1347.617431640625	
59	0.3866666666666667	691.09130859375	75.82892608642578	1042.8671875	709.9571533203125	87.01630401611328	1127.593383789063	804.3329467773438	955.3916625976563	1085.396362304688	715.033447265625	880.09619140625	1040.437744140625	635.7985229492188	47.53512954711914	1083.520141601563	699.1895751953125	432.6087341308594	1043.536865234375	717.7086181640625	1033.1533203125	1047.027954101563	718.7011108398438	495.1064758300781	1052.75146484375	723.2278442382813	486.4638671875	1179.273315429688	841.3858032226563	41.09865951538086	1101.711181640625	841.8650512695313	35.3919563293457	1072.9638671875	814.6885986328125	28.81426811218262	1021.617736816406	614.6388549804688	1002.864318847656	1194.311767578125	758.6470947265625	420.0504455566406	1087.129638671875	689.2228393554688	72.86351776123047	1399.417358398438	705.7520141601563	91.74945831298828	1314.329223632813	808.0455932617188	954.330810546875	1363.989013671875	704.70263671875	888.1689453125	1405.208374023438	636.8078002929688	49.57400894165039	1349.53564453125	711.4391479492188	440.2078552246094	1404.180297851563	727.260986328125	1032.102416992188	1404.841186523438	728.2564697265625	495.8633422851563	1395.107299804688	729.67919921875	481.759765625	1270.39794921875	842.2373046875	43.4122314453125	1342.040161132813	842.208740234375	38.28822708129883	1364.951538085938	809.9464111328125	31.67614555358887	1416.169921875	616.4755859375	1000.820922851563	1264.381591796875	767.7565307617188	423.6150817871094	1347.612670898438	
60	0.3933333333333334	691.07421875	75.81761169433594	1042.8623046875	709.9611206054688	87.02256011962891	1127.588256835938	804.3436279296875	955.3900146484375	1085.381103515625	715.05029296875	880.0840454101563	1040.433227539063	635.795166015625	47.52701568603516	1083.508911132813	699.176025390625	432.6158142089844	1043.526611328125	717.7554931640625	1033.150024414063	1047.039916992188	718.7056274414063	495.1064758300781	1052.741821289063	723.24951171875	486.4636535644531	1179.271484375	841.3916015625	41.09714889526367	1101.706909179688	841.8672485351563	35.38905334472656	1072.957763671875	814.6757202148438	28.80359840393066	1021.606750488281	614.6580200195313	1002.870300292969	1194.311645507813	758.6524047851563	420.0506286621094	1087.131591796875	689.23291015625	72.85724639892578	1399.410400390625	705.7566528320313	91.74480438232422	1314.321655273438	808.0841064453125	954.339111328125	1363.96923828125	704.7520751953125	888.16650390625	1405.210815429688	636.8098754882813	49.57863998413086	1349.531982421875	711.501708984375	440.2044372558594	1404.1728515625	727.3562622070313	1032.1435546875	1404.802124023438	728.3178100585938	495.8487854003906	1395.10009765625	729.7332763671875	481.7681274414063	1270.402099609375	842.2400512695313	43.40592575073242	1342.043212890625	842.2131958007813	38.28610992431641	1364.951171875	809.9489135742188	31.68583488464355	1416.169799804688	616.5149536132813	1000.834899902344	1264.395874023438	767.8031616210938	423.6059875488281	1347.600952148438	
61	0.4	691.0819091796875	75.82530975341797	1042.8603515625	709.9496459960938	87.02521514892578	1127.59765625	804.3638305664063	955.3939819335938	1085.37158203125	715.0479125976563	880.0755615234375	1040.440185546875	635.7942504882813	47.53046798706055	1083.502319335938	699.1904296875	432.6131591796875	1043.527954101563	717.8092651367188	1033.140991210938	1047.041259765625	718.7069702148438	495.0955505371094	1052.737426757813	723.2535400390625	486.4772033691406	1179.272705078125	841.3888549804688	41.09709167480469	1101.71044921875	841.8660888671875	35.38579940795898	1072.955810546875	814.6804809570313	28.8023738861084	1021.604125976563	614.6781616210938	1002.879211425781	1194.319091796875	758.6593017578125	420.0436401367188	1087.126586914063	689.2222290039063	72.86270904541016	1399.414916992188	705.7385864257813	91.74470520019531	1314.327026367188	808.1240234375	954.3447875976563	1363.939697265625	704.79248046875	888.1705932617188	1405.220947265625	636.8011474609375	49.57119369506836	1349.545043945313	711.5565185546875	440.2058715820313	1404.1708984375	727.4502563476563	1032.177124023438	1404.745971679688	728.3802490234375	495.8603210449219	1395.087036132813	729.7741088867188	481.7675476074219	1270.389770507813	842.2304077148438	43.40601348876953	1342.03515625	842.2070922851563	38.2847900390625	1364.936645507813	809.9459228515625	31.68377494812012	1416.162963867188	616.5479736328125	1000.8564453125	1264.408081054688	767.8405151367188	423.5931701660156	1347.593139648438	
